# xmcd
#
# Track frame offsets:
#	150
#	19012
#	38025
#
# Disc length: 756 seconds
#
# Revision: 1
# Processed by: cddbd v1.5PL3 Copyright (c) Steve Scherf et al.
# Submitted via: CDex 1.50Beta5
#
DISCID=1802f203
DTITLE=川村かおり - Go Home No Home
DYEAR=1996
DGENRE=Rock
TTITLE0=Go Home No Home
TTITLE1=Bye Bye Summer
TTITLE2=Go Home No Home
EXTD=
EXTT0=
EXTT1=
EXTT2=
PLAYORDER=
